<svg height="450pt" viewBox="-2 0 450 450.54691" width="450pt" xmlns="http://www.w3.org/2000/svg"><path d="m21.066406 445.273438c.367188 3.011718 2.925782 5.273437 5.957032 5.273437h93.363281c1.902343 0 3.691406-.902344 4.824219-2.429687 1.128906-1.527344 1.472656-3.5.917968-5.320313l-12.226562-40.097656 38.066406-24.0625c5.066406-2.796875 11.003906-3.566407 16.613281-2.148438.125.03125.25.058594.375.082031l77.707031 14.308594c21.160157 3.785156 42.980469.707032 62.265626-8.789062.253906-.125.5-.269532.734374-.433594l134.398438-92.277344c2.617188-1.796875 3.382812-5.324218 1.742188-8.042968-10.214844-17.011719-32.007813-22.972657-49.460938-13.527344l-2.144531 1.15625c-9.328125-11.199219-25.394531-15.523438-37.644531-9.3125-.046876.023437-.089844.042968-.136719.070312l-5.277344 2.84375c-13.277344-11.167968-32.121094-12.835937-47.160156-4.183594l-29.074219 15.808594h-38.699219c-8.359375-.011718-16.613281-1.902344-24.140625-5.53125l-5.332031-2.578125c-31.015625-15.089843-67.878906-11.492187-95.390625 9.316407-.132812.097656-.261719.199218-.382812.3125l-12.871094 11.457031c-4.789063 4.257812-10.441406 7.425781-16.574219 9.289062l-7.25-23.789062c-.769531-2.527344-3.101563-4.25-5.738281-4.25h-62.253906c-1.71875 0-3.351563.734375-4.492188 2.019531-1.136719 1.289062-1.671875 3-1.464844 4.707031zm340.972656-174.949219c6.898438-3.457031 15.574219-.691407 21.199219 4.550781l-50.71875 27.363281-2.78125 1.464844c-1.589843-4.441406-3.882812-8.601563-6.785156-12.324219zm-52.257812-1.4375.140625-.082031c9.121094-5.269532 20.371094-5.234376 29.460937.09375l-25.484374 13.730468c-4.789063-3.472656-10.226563-5.953125-15.992188-7.285156zm-203.722656 27.246093 12.683594-11.296874c23.910156-17.96875 55.867187-21.039063 82.757812-7.953126l5.332031 2.578126c9.160157 4.414062 19.195313 6.714843 29.367188 6.726562h51.691406c15.476563.023438 28.789063 10.953125 31.816406 26.128906l-37.203125-1.679687c-13.632812-.613281-27.292968.019531-40.8125 1.886719-2.144531.269531-3.976562 1.671874-4.796875 3.667968-.824219 2-.507812 4.285156.828125 5.984375 1.332032 1.703125 3.476563 2.554688 5.613282 2.230469 12.792968-1.765625 25.722656-2.363281 38.625-1.78125l44.089843 2c.09375 0 .183594.003906.273438.003906 3.3125 0 6-2.683594 6-6 0-.898437-.035157-1.785156-.085938-2.671875l5.925781-3.125 63.871094-34.460937c9.929688-5.375 22.226563-3.460938 30.054688 4.671875l-128.867188 88.480469c-16.878906 8.214843-35.929687 10.859374-54.40625 7.554687l-77.507812-14.277344c-8.574219-2.113281-17.632813-.886719-25.335938 3.4375-.09375.050781-.1875.105469-.277344.164063l-35.429687 22.394531-25.257813-82.847656c7.789063-2.375 14.96875-6.40625 21.050782-11.816407zm-41.984375-15.71875 48.210937 158.132813h-79.953125l-19.28125-158.132813zm0 0"/><path d="m68.8125 433.226562c10.191406.003907 18.453125-8.253906 18.453125-18.445312 0-10.1875-8.257813-18.449219-18.449219-18.453125-10.1875 0-18.449218 8.261719-18.449218 18.449219.011718 10.183594 8.261718 18.4375 18.445312 18.449218zm0-24.898437c3.5625 0 6.449219 2.886719 6.449219 6.449219s-2.886719 6.449218-6.449219 6.449218-6.449219-2.890624-6.449219-6.449218c.007813-3.558594 2.890625-6.441406 6.449219-6.445313zm0 0"/><path d="m253.085938 129.636719c.84375-.605469 1.773437-1.078125 2.761718-1.40625 3.324219-1.097657 6.980469-.410157 9.679688 1.820312 2.699218 2.230469 4.066406 5.6875 3.621094 9.164063-.433594 3.28125 1.878906 6.296875 5.160156 6.730468.265625.035157.527344.050782.792968.050782 3.007813-.003906 5.546876-2.234375 5.941407-5.214844 1.222656-9.355469-3.601563-18.460938-12.03125-22.699219l-.011719-.007812c-.554688-1.738281-.632812-3.589844-.222656-5.367188.335937-1.496093 1.011718-2.890625 1.96875-4.085937 1.351562-1.671875 1.703125-3.9375.925781-5.9375-.777344-2.003906-2.5625-3.4375-4.6875-3.761719s-4.257813.511719-5.597656 2.191406c-2.09375 2.601563-3.566407 5.644531-4.304688 8.902344-.4375 1.914063-.621093 3.878906-.542969 5.839844-3.777343.429687-7.378906 1.820312-10.464843 4.039062-2.6875 1.9375-3.296875 5.6875-1.359375 8.375 1.933594 2.691407 5.683594 3.300781 8.375 1.363281zm0 0"/><path d="m298.636719 106.4375c2.3125 2.371094 6.113281 2.414062 8.484375.097656.90625-.890625 1.714844-1.875 2.421875-2.929687.507812.140625 1.027343.210937 1.554687.214843 2.800782.007813 5.234375-1.921874 5.863282-4.648437.628906-2.730469-.710938-5.53125-3.230469-6.753906-2.804688-1.378907-4.261719-4.535157-3.488281-7.566407.824218-3.210937-1.109376-6.480468-4.320313-7.304687-3.207031-.824219-6.480469 1.109375-7.304687 4.320313-1.160157 4.558593-.550782 9.394531 1.710937 13.523437-.328125.964844-.875 1.84375-1.597656 2.5625-2.371094 2.316406-2.414063 6.113281-.09375 8.484375zm0 0"/><path d="m256.753906 68.535156c1.179688.421875 2.398438.726563 3.636719.902344.128906 2.78125.902344 5.496094 2.257813 7.925781 1.03125 1.886719 2.992187 3.078125 5.140624 3.121094 2.148438.046875 4.15625-1.058594 5.265626-2.902344 1.109374-1.839843 1.148437-4.132812.101562-6.011719-1.011719-1.839843-1.085938-4.054687-.203125-5.960937.882813-1.902344 2.621094-3.277344 4.679687-3.695313.972657-.199218 1.976563-.175781 2.9375.074219 3.210938.820313 6.480469-1.113281 7.304688-4.324219.820312-3.207031-1.113281-6.476562-4.324219-7.300781-7.429687-1.90625-15.269531.960938-19.714843 7.210938-1.015626.128906-2.042969.019531-3.007813-.320313-.933594-.332031-1.777344-.875-2.46875-1.585937-2.316406-2.367188-6.117187-2.410157-8.488281-.09375-2.367188 2.316406-2.410156 6.113281-.09375 8.484375 1.953125 2.003906 4.339844 3.535156 6.976562 4.476562zm0 0"/><path d="m277.019531 167.214844c-2.023437-.324219-3.945312-1.101563-5.621093-2.277344-2.714844-1.902344-6.457032-1.242188-8.359376 1.472656-1.902343 2.714844-1.242187 6.453125 1.472657 8.355469 3.15625 2.21875 6.777343 3.683594 10.585937 4.292969 2.644532.433594 5.34375.441406 7.988282.027344.621093 4.761718 2.570312 9.257812 5.625 12.964843 2.109374 2.554688 5.890624 2.917969 8.449218.808594 2.554688-2.109375 2.917969-5.890625.808594-8.445313-2.792969-3.398437-3.78125-7.9375-2.652344-12.1875.035156-.113281.066406-.222656.09375-.335937.644532-2.191406 1.832032-4.1875 3.449219-5.800781 2.34375-2.34375 2.34375-6.140625.003906-8.484375-2.34375-2.34375-6.140625-2.347657-8.488281-.003907-2.457031 2.457032-4.386719 5.390626-5.675781 8.617188-2.410157 1.070312-5.078125 1.414062-7.679688.996094zm0 0"/><path d="m257.785156 230.308594c7.027344-.007813 13.847656-2.390625 19.351563-6.757813 9.640625 4.929688 21.152343 4.488281 30.386719-1.164062 9.238281-5.65625 14.863281-15.707031 14.855468-26.535157v-7.933593c14.496094-6.070313 24.019532-20.148438 24.261719-35.859375 4.820313 1.351562 8.15625 5.746094 8.164063 10.753906.015624 12.796875 10.382812 23.164062 23.179687 23.175781h2.789063c3.007812 11.097657 13.765624 18.25 25.160156 16.730469 11.394531-1.515625 19.902344-11.234375 19.902344-22.730469 0-11.492187-8.507813-21.210937-19.902344-22.730469-11.394532-1.515624-22.152344 5.636719-25.160156 16.730469h-2.789063c-6.167969-.003906-11.171875-5.003906-11.179687-11.175781-.011719-12.320312-9.652344-22.484375-21.957032-23.144531-2.035156-6.441407-5.6875-12.253907-10.605468-16.882813.511718-.546875 1-1.121094 1.46875-1.710937h48.855468c3.007813 11.09375 13.765625 18.25 25.160156 16.730469 11.398438-1.515626 19.90625-11.234376 19.90625-22.730469 0-11.496094-8.507812-21.214844-19.90625-22.734375-11.394531-1.515625-22.152343 5.640625-25.160156 16.734375h-42.992187c.96875-4.167969 1.027343-8.496094.175781-12.691407-.40625-2.011718-1.015625-3.980468-1.820312-5.867187h3.699218c12.796875-.015625 23.164063-10.382813 23.175782-23.179687.007812-6.171876 5.007812-11.171876 11.179687-11.179688h2.789063c1.03125 3.847656 3.054687 7.351562 5.871093 10.167969 7.316407 7.359375 18.667969 8.886719 27.667969 3.722656 9.003906-5.160156 13.417969-15.726563 10.761719-25.761719-2.660157-10.03125-11.722657-17.027344-22.101563-17.058594s-19.484375 6.914063-22.199218 16.929688h-2.789063c-12.796875.011719-23.167969 10.382812-23.179687 23.179688-.007813 6.171874-5.007813 11.171874-11.175782 11.179687h-13.054687c-.519531-.402344-1.050781-.785156-1.597657-1.152344-.84375-.550781-1.714843-1.0625-2.609374-1.527343 3.003906-13.007813-.769532-26.652344-10.027344-36.269532-9.257813-9.617187-22.746094-13.90625-35.859375-11.402344.023437-.464843.046875-.929687.046875-1.398437-.089844-14.808594-12.121094-26.765625-26.925782-26.765625-14.808593 0-26.835937 11.957031-26.929687 26.765625v172.429687c.019531 17.175782 13.9375 31.09375 31.113281 31.113282zm137.34375-58c4.242188-4.242188 11.125-4.242188 15.367188 0 4.242187 4.242187 4.242187 11.121094 0 15.363281-4.242188 4.246094-11.125 4.246094-15.367188 0-2.054687-2.027344-3.210937-4.792969-3.210937-7.683594 0-2.886719 1.15625-5.65625 3.210937-7.683593zm3.789063-64.917969c4.246093-4.242187 11.125-4.242187 15.367187 0 4.246094 4.242187 4.246094 11.125 0 15.367187-4.242187 4.242188-11.121094 4.242188-15.367187 0-4.234375-4.246093-4.234375-11.121093 0-15.367187zm-3.789063-64.914063c4.242188-4.242187 11.125-4.242187 15.367188 0 4.242187 4.242188 4.242187 11.121094 0 15.363282-4.242188 4.246094-11.125 4.246094-15.367188 0-4.234375-4.246094-4.234375-11.121094 0-15.367188zm-156.453125-15.714843c-.003906-6.175781 3.800781-11.71875 9.566407-13.9375 5.761718-2.21875 12.300781-.65625 16.441406 3.929687 4.136718 4.585938 5.027344 11.246094 2.230468 16.753906-.824218.523438-1.636718 1.074219-2.429687 1.660157-1.75 1.261719-2.6875 3.371093-2.453125 5.515625.234375 2.144531 1.605469 4 3.585938 4.855468 1.984374.855469 4.273437.582032 5.996093-.71875 10.472657-7.71875 24.921875-7.03125 34.621094 1.636719 9.699219 8.671875 11.992187 22.953125 5.492187 34.226563-1.628906 2.789062-.75 6.367187 1.980469 8.089844 2.734375 1.722656 6.339844.96875 8.15625-1.707032.15625.101563.316407.1875.46875.289063 4.679688 3.085937 7.640625 8.195312 7.996094 13.789062.355469 5.597657-1.9375 11.039063-6.191406 14.691407-5.296875-2.53125-11.09375-3.839844-16.964844-3.835938-3.3125 0-6 2.6875-6 6s2.6875 6 6 6c15.179687 0 27.484375 12.304688 27.484375 27.480469 0 15.179687-12.304688 27.484375-27.484375 27.484375-3.3125 0-6 2.683594-6 6 0 3.3125 2.6875 6 6 6 1.082031 0 2.148437-.054688 3.207031-.140625v5.023437c0 10.554688-8.554687 19.109375-19.109375 19.109375-10.554687 0-19.113281-8.554687-19.113281-19.109375 0-3.316406-2.6875-6-6-6s-6 2.683594-6 6c-.007812 7.265625 2.542969 14.300782 7.199219 19.878906-5.910157 3.429688-13.199219 3.4375-19.121094.027344-5.917969-3.414062-9.566406-9.726562-9.5625-16.558594zm0 0"/><path d="m190.398438 115.859375c.078124-1.964844-.105469-3.925781-.542969-5.84375-.738281-3.253906-2.210938-6.296875-4.304688-8.898437-1.335937-1.679688-3.472656-2.515626-5.597656-2.195313-2.121094.324219-3.910156 1.761719-4.6875 3.761719-.777344 2.003906-.425781 4.269531.925781 5.941406.957032 1.195312 1.632813 2.589844 1.96875 4.082031.410156 1.777344.332032 3.632813-.21875 5.371094l-.015625.003906c-8.429687 4.242188-13.253906 13.347657-12.03125 22.703125.433594 3.285156 3.449219 5.597656 6.734375 5.164063 3.285156-.433594 5.601563-3.445313 5.167969-6.734375-.453125-3.472656.914063-6.933594 3.613281-9.164063 2.703125-2.230469 6.359375-2.914062 9.683594-1.816406.988281.324219 1.917969.796875 2.761719 1.402344 2.691406 1.9375 6.441406 1.328125 8.375-1.363281 1.9375-2.6875 1.328125-6.4375-1.359375-8.375-3.085938-2.21875-6.6875-3.609376-10.464844-4.039063zm0 0"/><path d="m133.203125 92.421875c-2.519531 1.21875-3.859375 4.023437-3.230469 6.75.632813 2.730469 3.066406 4.660156 5.863282 4.648437.527343 0 1.050781-.074218 1.554687-.214843.707031 1.058593 1.519531 2.042969 2.425781 2.933593 2.375 2.285157 6.148438 2.230469 8.453125-.128906 2.304688-2.355468 2.273438-6.128906-.066406-8.453125-.722656-.71875-1.273437-1.59375-1.597656-2.5625 2.257812-4.128906 2.871093-8.960937 1.707031-13.523437-.824219-3.207032-4.09375-5.140625-7.304688-4.316406-3.207031.824218-5.140624 4.09375-4.316406 7.304687.769532 3.027344-.683594 6.179687-3.488281 7.5625zm0 0"/><path d="m166.367188 61.980469c.960937-.246094 1.964843-.269531 2.9375-.070313 2.058593.417969 3.796874 1.789063 4.679687 3.695313s.808594 4.121093-.203125 5.960937c-1.046875 1.878906-1.003906 4.171875.101562 6.011719 1.109376 1.839844 3.117188 2.949219 5.269532 2.902344 2.148437-.042969 4.105468-1.234375 5.136718-3.121094 1.355469-2.433594 2.128907-5.144531 2.257813-7.925781 4.039063-.570313 7.769531-2.460938 10.617187-5.378906 2.316407-2.371094 2.269532-6.171876-.097656-8.488282-2.371094-2.316406-6.167968-2.269531-8.484375.097656-.695312.710938-1.539062 1.25-2.472656 1.585938-.964844.339844-1.992187.449219-3.007813.320312-4.445312-6.25-12.285156-9.117187-19.714843-7.210937-3.210938.820313-5.144531 4.089844-4.320313 7.300781.820313 3.210938 4.089844 5.144532 7.300782 4.320313zm0 0"/><path d="m148.078125 166.089844c1.617187 1.613281 2.804687 3.609375 3.445313 5.804687.027343.109375.058593.21875.09375.328125 1.128906 4.253906.144531 8.789063-2.652344 12.191406-2.109375 2.554688-1.746094 6.335938.8125 8.445313 2.554687 2.109375 6.335937 1.746094 8.445312-.808594 3.058594-3.707031 5.007813-8.203125 5.625-12.964843 6.515625 1.007812 13.171875-.539063 18.574219-4.320313 2.714844-1.902344 3.375-5.640625 1.472656-8.355469-1.898437-2.714844-5.640625-3.375-8.355469-1.472656-1.679687 1.175781-3.601562 1.953125-5.625 2.277344-2.601562.414062-5.269531.066406-7.675781-1-1.289062-3.230469-3.222656-6.164063-5.679687-8.621094-2.34375-2.34375-6.144532-2.339844-8.484375.003906-2.34375 2.34375-2.339844 6.144532.003906 8.484375zm0 0"/><path d="m56.5 98.902344c-7.316406-7.359375-18.664062-8.886719-27.667969-3.726563-9.003906 5.164063-13.417969 15.730469-10.761719 25.761719 2.652344 10.03125 11.71875 17.03125 22.097657 17.0625 10.378906.03125 19.484375-6.910156 22.199219-16.929688h48.851562c.472656.589844.960938 1.164063 1.472656 1.710938-4.917968 4.632812-8.566406 10.445312-10.601562 16.882812-12.304688.664063-21.945313 10.824219-21.960938 23.148438-.007812 6.167969-5.007812 11.167969-11.175781 11.175781h-2.789063c-3.007812-11.097656-13.765624-18.25-25.164062-16.734375-11.394531 1.519532-19.90625 11.238282-19.90625 22.734375 0 11.496094 8.511719 21.214844 19.90625 22.730469 11.398438 1.519531 22.15625-5.636719 25.164062-16.730469h2.789063c12.792969-.011719 23.164063-10.382812 23.175781-23.175781.011719-5.011719 3.34375-9.402344 8.167969-10.753906.242187 15.710937 9.765625 29.785156 24.257813 35.855468v7.933594c-.003907 10.828125 5.621093 20.882813 14.855468 26.535156 9.238282 5.65625 20.75 6.097657 30.390625 1.164063 9.34375 7.4375 22.125 8.863281 32.878907 3.671875 10.753906-5.191406 17.585937-16.082031 17.582031-28.023438v-172.433593c-.089844-14.804688-12.121094-26.761719-26.925781-26.761719-14.808594 0-26.835938 11.957031-26.925782 26.761719 0 .46875.019532.933593.042969 1.402343-13.117187-2.542968-26.632813 1.734376-35.898437 11.363282-9.269532 9.628906-13.027344 23.296875-9.988282 36.308594-.890625.464843-1.757812.976562-2.597656 1.527343-.550781.367188-1.082031.753907-1.601562 1.152344h-13.0625c-6.167969-.007813-11.167969-5.007813-11.175782-11.179687-.011718-12.796876-10.382812-23.167969-23.179687-23.179688h-2.789063c-2.726562-9.949219-11.789062-16.832031-22.109375-16.789062-10.316406.042968-19.320312 7.003906-21.960937 16.980468-2.640625 9.972656 1.734375 20.476563 10.679687 25.621094 8.941407 5.148438 20.226563 3.652344 27.519531-3.644531 2.816407-2.816407 4.839844-6.320313 5.871094-10.167969h2.789063c6.171875.007812 11.171875 5.007812 11.179687 11.179688.011719 12.796874 10.382813 23.164062 23.175782 23.179687h3.703124c-.804687 1.886719-1.417968 3.855469-1.824218 5.867187-.851563 4.195313-.789063 8.523438.179687 12.691407h-42.996093c-1.03125-3.847657-3.054688-7.351563-5.867188-10.171875zm-8.484375 23.851562c-4.242187 4.242188-11.117187 4.238282-15.359375-.003906-4.238281-4.238281-4.238281-11.117188 0-15.355469 4.242188-4.242187 11.117188-4.242187 15.359375-.003906 2.054687 2.027344 3.210937 4.792969 3.210937 7.683594 0 2.886719-1.15625 5.652343-3.210937 7.679687zm3.789063 64.917969c-4.242188 4.242187-11.121094 4.242187-15.367188 0-4.242188-4.242187-4.242188-11.125 0-15.367187 4.246094-4.242188 11.125-4.242188 15.367188 0 4.234374 4.246093 4.234374 11.121093 0 15.367187zm0-129.835937c-4.242188 4.238281-11.117188 4.238281-15.355469-.003907-4.238281-4.242187-4.238281-11.113281 0-15.355469 4.238281-4.242187 11.113281-4.242187 15.355469-.003906 4.238281 4.246094 4.238281 11.117188 0 15.363282zm107.210937-18.375c5.871094-.019532 11.589844 1.863281 16.308594 5.359374 1.722656 1.300782 4.011719 1.574219 5.992187.71875 1.980469-.855468 3.351563-2.710937 3.585938-4.855468.234375-2.144532-.699219-4.253906-2.449219-5.515625-.792969-.585938-1.605469-1.140625-2.433594-1.660157-2.789062-5.507812-1.898437-12.164062 2.238281-16.746093 4.140626-4.582031 10.671876-6.144531 16.433594-3.925781 5.765625 2.214843 9.566406 7.753906 9.566406 13.925781v172.433593c.007813 6.832032-3.640624 13.148438-9.558593 16.558594-5.921875 3.414063-13.214844 3.402344-19.125-.023437 4.660156-5.578125 7.207031-12.617188 7.203125-19.882813 0-3.3125-2.6875-6-6-6-3.316406 0-6 2.6875-6 6 0 10.554688-8.558594 19.113282-19.113282 19.113282-10.554687 0-19.113281-8.558594-19.113281-19.113282v-5.023437c1.058594.085937 2.128907.140625 3.207031.140625 3.316407 0 6-2.683594 6-6 0-3.3125-2.683593-6-6-6-15.175781 0-27.480468-12.304688-27.480468-27.480469 0-15.179687 12.304687-27.484375 27.480468-27.484375 3.316407 0 6-2.683594 6-6 0-3.3125-2.683593-6-6-6-5.867187-.003906-11.664062 1.304688-16.960937 3.835938-4.238281-3.664063-6.519531-9.097657-6.164063-14.691407.351563-5.589843 3.304688-10.695312 7.972657-13.792969.152343-.097656.3125-.1875.46875-.285156 1.820312 2.65625 5.414062 3.398438 8.136719 1.683594 2.726562-1.71875 3.605468-5.28125 1.996093-8.070312-4.902343-8.503907-4.902343-18.980469.007813-27.480469s13.980468-13.738281 23.800781-13.742188zm0 0"/></svg>