<svg height="393pt" viewBox="-11 0 393 393.81876" width="393pt" xmlns="http://www.w3.org/2000/svg"><path d="m193.121094 19.277344s31.894531-31.894532 70.171875 6.382812c0 0 25.515625-6.382812 38.273437 25.515625 0 0 57.414063 0 51.035156 89.308594 0 0 38.277344 57.410156-19.136718 95.6875 0 0 12.757812 51.03125-31.894532 70.171875 0 0 12.757813 38.273438-25.519531 44.652344 0 0-44.652343 76.550781-82.929687 6.378906h-.261719c-38.273437 70.171875-82.929687-6.378906-82.929687-6.378906-38.273438-6.378906-25.515626-44.652344-25.515626-44.652344-44.65625-19.140625-31.894531-70.171875-31.894531-70.171875-57.414062-38.277344-19.136719-95.6875-19.136719-95.6875-6.378906-89.308594 51.035157-89.308594 51.035157-89.308594 12.757812-31.898437 38.273437-25.515625 38.273437-25.515625 38.277344-38.277344 70.171875-6.382812 70.171875-6.382812zm0 0" fill="#0e65e5"/><path d="m229.511719 393.820312c-.164063 0-.324219-.003906-.488281-.003906-13.375-.195312-25.464844-8.105468-36.03125-23.542968-10.570313 15.4375-22.660157 23.347656-36.035157 23.542968-.160156 0-.324219.003906-.484375.003906-24.960937 0-44.957031-27.734374-50.757812-36.6875-11.492188-2.535156-19.878906-8.078124-24.957032-16.519531-6.453124-10.71875-5.582031-23.265625-4.261718-30.496093-31.75-16.824219-34.941406-51.042969-31.574219-70.925782-29.054687-21.265625-32.597656-47.476562-30.273437-66.066406 2.046874-16.398438 8.902343-29.46875 11.777343-34.363281-2.082031-34.125 4.679688-59.816407 20.117188-76.398438 12.035156-12.921875 26.085937-16.578125 33.226562-17.609375 10.886719-23.007812 29.414063-27.464844 40.636719-26.378906 21.066406-19.621094 40.542969-20.09375 53.382812-16.886719 8.464844 2.117188 15.09375 6.082031 19.207032 9.074219 4.109375-2.992188 10.738281-6.957031 19.203125-9.074219 12.835937-3.203125 32.320312-2.734375 53.378906 16.886719 11.230469-1.089844 29.753906 3.363281 40.636719 26.378906 7.136718 1.03125 21.195312 4.6875 33.226562 17.609375 15.441406 16.585938 22.207032 42.292969 20.113282 76.4375 6.363281 11.058594 32.355468 63.234375-18.492188 100.390625 3.367188 19.878906.179688 54.097656-31.574219 70.925782 1.320313 7.230468 2.195313 19.777343-4.261719 30.5-5.078124 8.433593-13.464843 13.976562-24.953124 16.511718-5.804688 8.953125-25.804688 36.6875-50.761719 36.691406zm-36.652344-43.269531c2.5 0 5.058594 1.363281 6.253906 3.554688 9.339844 17.128906 19.464844 25.894531 30.085938 26.058593.105469.003907.207031.003907.308593.003907 17.660157 0 35.308594-23.503907 40.648438-32.617188 1.027344-1.746093 2.773438-2.953125 4.773438-3.285156 8.941406-1.492187 15.1875-5.070313 18.566406-10.632813 6.292968-10.371093 1.636718-25.003906 1.589844-25.152343-1.09375-3.359375.546874-7.019531 3.792968-8.410157 38.664063-16.570312 28.417969-60.398437 27.960938-62.257812-.683594-2.789062.449218-5.722656 2.839844-7.316406 50.921874-33.957032 18.632812-84.117188 17.238281-86.238282-.832031-1.253906-1.230469-2.757812-1.125-4.257812 2.222656-31.125-3.207031-54.039062-16.140625-68.109375-12.433594-13.527344-27.488282-13.878906-28.125-13.886719-2.757813-.035156-5.269532-1.730468-6.292969-4.289062-10.429687-26.0625-29.476563-21.632813-30.285156-21.429688-2.316407.585938-4.785157-.097656-6.480469-1.796875-14.0625-14.058593-28.496094-19.367187-42.957031-15.75-10.628907 2.65625-17.496094 9.300781-17.5625 9.367188-1.277344 1.28125-3.015625 2-4.824219 2h-.261719c-1.808593 0-3.546875-.71875-4.824219-2-2.78125-2.722657-28.265624-25.871094-60.519531 6.378906-1.699219 1.699219-4.164062 2.382813-6.484375 1.796875-1.96875-.453125-20.179687-3.820312-30.277344 21.429688-1.035156 2.59375-3.550781 4.292968-6.339843 4.292968-.59375.007813-15.648438.355469-28.082031 13.886719-12.933594 14.070313-18.363282 36.984375-16.140626 68.105469.105469 1.511718-.289062 3.015625-1.128906 4.273437-1.390625 2.105469-33.683594 52.269531 17.242188 86.222657 2.398437 1.601562 3.535156 4.535156 2.835937 7.335937-.453125 1.839844-10.703125 45.671875 27.964844 62.242187 3.261719 1.394532 4.910156 5.0625 3.785156 8.433594-.039062.121094-4.695312 14.753906 1.597657 25.125 3.375 5.566406 9.621093 9.144532 18.566406 10.632813 2 .332031 3.75 1.539062 4.773437 3.289062 5.335938 9.113281 22.988281 32.613281 40.648438 32.613281.101562 0 .199219 0 .304687-.003906 10.621094-.160156 20.75-8.925781 30.089844-26.054687 1.191406-2.191407 3.488281-3.554688 5.984375-3.554688zm.261719-331.273437h.066406zm0 0" fill="#0e65e5"/><path d="m179.46875 19.277344s31.894531-31.894532 70.167969 6.382812c0 0 25.519531-6.382812 38.277343 25.515625 0 0 57.410157 0 51.035157 89.308594 0 0 38.273437 57.410156-19.136719 95.6875 0 0 12.757812 51.03125-31.898438 70.171875 0 0 12.761719 38.273438-25.515624 44.652344 0 0-44.652344 76.550781-82.929688 6.378906h-.261719c-38.273437 70.171875-82.929687-6.378906-82.929687-6.378906-38.273438-6.378906-25.515625-44.652344-25.515625-44.652344-44.65625-19.140625-31.898438-70.171875-31.898438-70.171875-57.410156-38.277344-19.136719-95.6875-19.136719-95.6875-6.378906-89.308594 51.035157-89.308594 51.035157-89.308594 12.761719-31.898437 38.277343-25.515625 38.277343-25.515625 38.273438-38.277344 70.171876-6.382812 70.171876-6.382812zm0 0" fill="#d7e9ff"/><path d="m215.859375 393.820312c-.164063 0-.324219-.003906-.488281-.003906-13.375-.195312-25.464844-8.105468-36.03125-23.542968-10.570313 15.4375-22.660156 23.347656-36.035156 23.542968-.164063 0-.324219.003906-.484376.003906-24.964843 0-44.957031-27.734374-50.761718-36.6875-11.492188-2.535156-19.875-8.078124-24.953125-16.519531-6.453125-10.71875-5.582031-23.265625-4.261719-30.496093-31.753906-16.824219-34.941406-51.042969-31.574219-70.925782-29.054687-21.265625-32.601562-47.476562-30.273437-66.066406 2.046875-16.398438 8.902344-29.46875 11.777344-34.363281-2.082032-34.125 4.679687-59.816407 20.117187-76.398438 12.03125-12.921875 26.085937-16.578125 33.226563-17.609375 10.882812-23.007812 29.402343-27.464844 40.636718-26.378906 21.0625-19.621094 40.539063-20.09375 53.378906-16.886719 8.46875 2.117188 15.097657 6.082031 19.207032 9.074219 4.109375-2.992188 10.742187-6.957031 19.207031-9.074219 12.835937-3.203125 32.316406-2.734375 53.375 16.886719 11.222656-1.089844 29.753906 3.363281 40.640625 26.378906 7.136719 1.03125 21.195312 4.6875 33.226562 17.609375 15.441407 16.585938 22.203126 42.292969 20.113282 76.4375 6.363281 11.058594 32.355468 63.234375-18.492188 100.390625 3.367188 19.878906.175782 54.097656-31.574218 70.925782 1.320312 7.230468 2.191406 19.777343-4.261719 30.5-5.078125 8.433593-13.464844 13.976562-24.953125 16.511718-5.804688 8.953125-25.804688 36.6875-50.761719 36.691406zm-36.652344-43.269531c2.496094 0 5.058594 1.363281 6.253907 3.554688 9.339843 17.128906 19.460937 25.894531 30.085937 26.058593.105469.003907.207031.003907.308594.003907 17.660156 0 35.308593-23.503907 40.648437-32.617188 1.023438-1.746093 2.773438-2.953125 4.769532-3.285156 8.945312-1.492187 15.191406-5.070313 18.566406-10.632813 6.296875-10.371093 1.636718-25.003906 1.59375-25.152343-1.09375-3.359375.542968-7.019531 3.792968-8.410157 38.664063-16.570312 28.414063-60.398437 27.960938-62.257812-.683594-2.789062.449219-5.722656 2.839844-7.316406 50.921875-33.957032 18.632812-84.117188 17.234375-86.238282-.828125-1.253906-1.230469-2.757812-1.121094-4.257812 2.222656-31.125-3.207031-54.039062-16.140625-68.109375-12.4375-13.527344-27.488281-13.878906-28.125-13.886719-2.761719-.035156-5.269531-1.730468-6.292969-4.289062-10.425781-26.0625-29.480469-21.632813-30.285156-21.429688-2.324219.585938-4.785156-.097656-6.484375-1.796875-14.058594-14.058593-28.5-19.367187-42.957031-15.75-10.625 2.65625-17.492188 9.300781-17.558594 9.367188-1.28125 1.28125-3.015625 2-4.828125 2h-.257812c-1.8125 0-3.546876-.71875-4.828126-2-2.773437-2.722657-28.253906-25.871094-60.519531 6.378906-1.699219 1.699219-4.148437 2.382813-6.480469 1.796875-1.96875-.453125-20.183593-3.820312-30.277343 21.429688-1.035157 2.59375-3.550781 4.292968-6.339844 4.292968-.59375.007813-15.648437.355469-28.085937 13.886719-12.929688 14.070313-18.363282 36.984375-16.136719 68.105469.105469 1.511718-.292969 3.015625-1.132813 4.273437-1.386718 2.105469-33.679687 52.269531 17.246094 86.222657 2.398438 1.601562 3.535156 4.535156 2.835938 7.335937-.453126 1.839844-10.703126 45.671875 27.964843 62.242187 3.261719 1.394532 4.910157 5.0625 3.785157 8.433594-.039063.121094-4.695313 14.753906 1.59375 25.125 3.378906 5.566406 9.625 9.144532 18.570312 10.632813 1.996094.332031 3.746094 1.539062 4.769531 3.289062 5.339844 9.113281 22.992188 32.613281 40.652344 32.613281.097656 0 .199219 0 .300781-.003906 10.625-.160156 20.75-8.925781 30.09375-26.054687 1.1875-2.191407 3.488282-3.554688 5.984375-3.554688zm.261719-331.273437h.066406zm0 0" fill="#0e65e5"/><path d="m249.378906 95.828125s0-31.894531 38.277344-44.652344" fill="#d7e9ff"/><path d="m249.378906 102.65625c-3.773437 0-6.828125-3.054688-6.828125-6.828125 0-1.503906.484375-36.980469 42.941407-51.128906 3.597656-1.207031 7.449218.746093 8.640624 4.316406 1.191407 3.582031-.742187 7.441406-4.316406 8.636719-33.226562 11.074218-33.609375 37.90625-33.609375 38.175781-.003906 3.773437-3.058593 6.828125-6.828125 6.828125zm0 0" fill="#0e65e5"/><path d="m255.757812 217.035156s19.523438 52.871094 63.789063 19.136719" fill="#d7e9ff"/><path d="m291.75 254.265625c-3.421875 0-6.785156-.480469-10.082031-1.4375-22.117188-6.433594-31.90625-32.332031-32.3125-33.433594-1.308594-3.535156.503906-7.457031 4.039062-8.765625 3.53125-1.316406 7.453125.492188 8.765625 4.027344.164063.429688 7.964844 20.636719 23.371094 25.074219 8.703125 2.511719 18.761719-.515625 29.882812-8.992188 2.996094-2.285156 7.285157-1.703125 9.566407 1.296875 2.28125 2.996094 1.707031 7.277344-1.292969 9.5625-11.054688 8.429688-21.761719 12.667969-31.9375 12.667969zm0 0" fill="#0e65e5"/><path d="m223.859375 293.585938s6.382813-25.519532-19.136719-51.035157" fill="#d7e9ff"/><path d="m223.867188 300.414062c-.550782 0-1.105469-.0625-1.664063-.203124-3.644531-.910157-5.863281-4.589844-4.976563-8.234376.234376-1.011718 4.835938-22.429687-17.328124-44.601562-2.667969-2.664062-2.667969-6.988281 0-9.652344 2.664062-2.664062 6.984374-2.664062 9.652343 0 27.929688 27.933594 21.230469 56.324219 20.933594 57.519532-.777344 3.101562-3.558594 5.171874-6.617187 5.171874zm0 0" fill="#0e65e5"/><path d="m309.054688 176.066406s-38.367188 14.015625-59.003907-13.449218c-20.636719-27.464844-16.152343-47.132813-30.371093-48.304688" fill="#d7e9ff"/><path d="m286.769531 186.523438c-13.683593 0-30.28125-3.976563-42.175781-19.808594-10.152344-13.503906-14.570312-25.226563-17.800781-33.789063-3.738281-9.917969-4.816407-11.574219-7.671875-11.808593-3.757813-.3125-6.554688-3.609376-6.242188-7.363282.308594-3.761718 3.609375-6.578125 7.363282-6.242187 11.929687.980469 15.523437 10.511719 19.328124 20.597656 3.101563 8.222656 6.960938 18.457031 15.9375 30.40625 17.289063 23.007813 49.839844 11.625 51.21875 11.132813 3.539063-1.289063 7.453126.550781 8.738282 4.09375 1.28125 3.535156-.53125 7.441406-4.066406 8.734374-.867188.320313-11.382813 4.046876-24.628907 4.046876zm0 0" fill="#0e65e5"/><path d="m179.207031 364.203125c-3.769531 0-6.824219-3.058594-6.824219-6.828125v-338.097656c0-3.769532 3.054688-6.824219 6.824219-6.824219s6.828125 3.054687 6.828125 6.824219v338.097656c0 3.769531-3.058594 6.828125-6.828125 6.828125zm0 0" fill="#0e65e5"/><path d="m222.292969 71.367188s.660156 45.101562-22.375 74.3125" fill="#d7e9ff"/><path d="m199.917969 152.507812c-1.480469 0-2.96875-.480468-4.222657-1.46875-2.960937-2.332031-3.472656-6.625-1.132812-9.585937 21.28125-26.992187 20.910156-69.558594 20.90625-69.984375-.054688-3.773438 2.953125-6.871094 6.726562-6.929688h.101563c3.726563 0 6.769531 2.992188 6.824219 6.726563.027344 1.941406.414062 47.878906-23.839844 78.640625-1.347656 1.710938-3.347656 2.601562-5.363281 2.601562zm0 0" fill="#0e65e5"/><path d="m204.722656 325.480469s12.761719-38.277344 38.277344-38.277344" fill="#d7e9ff"/><path d="m204.722656 332.308594c-.710937 0-1.441406-.113282-2.160156-.351563-3.578125-1.195312-5.511719-5.0625-4.316406-8.640625.585937-1.75 14.660156-42.9375 44.75-42.9375 3.773437 0 6.828125 3.054688 6.828125 6.824219 0 3.773437-3.054688 6.828125-6.828125 6.828125-20.035156 0-31.679688 33.269531-31.796875 33.605469-.949219 2.863281-3.613281 4.671875-6.476563 4.671875zm0 0" fill="#0e65e5"/><path d="m246.621094 22.789062-16.378906 22.007813" fill="#d7e9ff"/><path d="m230.234375 51.621094c-1.414063 0-2.84375-.441406-4.070313-1.347656-3.023437-2.25-3.648437-6.527344-1.398437-9.554688l16.378906-22.007812c2.253907-3.019532 6.519531-3.652344 9.550781-1.398438 3.023438 2.246094 3.652344 6.523438 1.402344 9.550781l-16.378906 22.007813c-1.339844 1.800781-3.398438 2.75-5.484375 2.75zm0 0" fill="#0e65e5"/><path d="m131.410156 88.738281c0 11.3125-9.167968 20.480469-20.480468 20.480469-11.308594 0-20.480469-9.167969-20.480469-20.480469s9.171875-20.480469 20.480469-20.480469c11.3125 0 20.480468 9.167969 20.480468 20.480469zm0 0" fill="#94c1ff"/><path d="m110.929688 116.046875c-15.054688 0-27.304688-12.253906-27.304688-27.308594 0-15.054687 12.25-27.304687 27.304688-27.304687 15.058593 0 27.308593 12.25 27.308593 27.304687 0 15.054688-12.25 27.308594-27.308593 27.308594zm0-40.960937c-7.527344 0-13.652344 6.121093-13.652344 13.652343s6.125 13.652344 13.652344 13.652344c7.53125 0 13.65625-6.121094 13.65625-13.652344s-6.125-13.652343-13.65625-13.652343zm0 0" fill="#0e65e5"/><path d="m83.625 177.484375c0 11.3125-9.171875 20.480469-20.480469 20.480469-11.3125 0-20.480469-9.167969-20.480469-20.480469 0-11.308594 9.167969-20.480469 20.480469-20.480469 11.308594 0 20.480469 9.171875 20.480469 20.480469zm0 0" fill="#94c1ff"/><path d="m63.144531 204.792969c-15.054687 0-27.308593-12.25-27.308593-27.308594 0-15.054687 12.253906-27.304687 27.308593-27.304687 15.054688 0 27.304688 12.25 27.304688 27.304687 0 15.058594-12.246094 27.308594-27.304688 27.308594zm0-40.960938c-7.53125 0-13.652343 6.125-13.652343 13.652344 0 7.53125 6.121093 13.652344 13.652343 13.652344s13.652344-6.121094 13.652344-13.652344c0-7.527344-6.121094-13.652344-13.652344-13.652344zm0 0" fill="#0e65e5"/><path d="m151.890625 238.925781c0 11.308594-9.167969 20.480469-20.480469 20.480469-11.308594 0-20.480468-9.171875-20.480468-20.480469 0-11.3125 9.171874-20.480469 20.480468-20.480469 11.3125 0 20.480469 9.167969 20.480469 20.480469zm0 0" fill="#94c1ff"/><path d="m131.410156 266.230469c-15.054687 0-27.304687-12.25-27.304687-27.304688 0-15.058593 12.25-27.308593 27.304687-27.308593 15.058594 0 27.308594 12.25 27.308594 27.308593 0 15.054688-12.25 27.304688-27.308594 27.304688zm0-40.957031c-7.527344 0-13.652344 6.121093-13.652344 13.652343 0 7.527344 6.125 13.652344 13.652344 13.652344 7.53125 0 13.652344-6.125 13.652344-13.652344 0-7.53125-6.121094-13.652343-13.652344-13.652343zm0 0" fill="#0e65e5"/><path d="m151.890625 314.019531c0 11.308594-9.167969 20.480469-20.480469 20.480469-11.308594 0-20.480468-9.171875-20.480468-20.480469 0-11.3125 9.171874-20.480469 20.480468-20.480469 11.3125 0 20.480469 9.167969 20.480469 20.480469zm0 0" fill="#94c1ff"/><g fill="#0e65e5"><path d="m131.410156 341.324219c-15.054687 0-27.304687-12.25-27.304687-27.304688 0-15.058593 12.25-27.308593 27.304687-27.308593 15.058594 0 27.308594 12.25 27.308594 27.308593 0 15.054688-12.25 27.304688-27.308594 27.304688zm0-40.960938c-7.527344 0-13.652344 6.125-13.652344 13.65625 0 7.527344 6.125 13.652344 13.652344 13.652344 7.53125 0 13.652344-6.125 13.652344-13.652344 0-7.53125-6.121094-13.65625-13.652344-13.65625zm0 0"/><path d="m110.929688 184.3125c-3.769532 0-6.824219-3.058594-6.824219-6.828125v-68.265625c0-3.769531 3.054687-6.828125 6.824219-6.828125 3.769531 0 6.828124 3.058594 6.828124 6.828125v68.265625c0 3.769531-3.058593 6.828125-6.828124 6.828125zm0 0"/><path d="m131.410156 184.3125h-47.785156c-3.769531 0-6.828125-3.058594-6.828125-6.828125s3.058594-6.824219 6.828125-6.824219h47.785156c3.769532 0 6.828125 3.054688 6.828125 6.824219s-3.058593 6.828125-6.828125 6.828125zm0 0"/><path d="m131.410156 225.273438c-3.769531 0-6.824218-3.058594-6.824218-6.828126v-40.960937c0-3.769531 3.054687-6.824219 6.824218-6.824219 3.769532 0 6.828125 3.054688 6.828125 6.824219v40.960937c0 3.769532-3.058593 6.828126-6.828125 6.828126zm0 0"/><path d="m131.410156 300.363281c-3.769531 0-6.824218-3.054687-6.824218-6.824219v-34.132812c0-3.769531 3.054687-6.828125 6.824218-6.828125 3.769532 0 6.828125 3.058594 6.828125 6.828125v34.132812c0 3.769532-3.058593 6.824219-6.828125 6.824219zm0 0"/></g><path d="m322.558594 116.046875c-3.769532 0-6.828125-3.058594-6.828125-6.828125v-27.308594c0-3.769531 3.058593-6.824218 6.828125-6.824218 3.769531 0 6.824218 3.054687 6.824218 6.824218v27.308594c0 3.769531-3.054687 6.828125-6.824218 6.828125zm0 0" fill="#fff"/><path d="m336.210938 102.390625h-27.308594c-3.769532 0-6.824219-3.054687-6.824219-6.824219 0-3.769531 3.054687-6.828125 6.824219-6.828125h27.308594c3.769531 0 6.828124 3.058594 6.828124 6.828125 0 3.769532-3.058593 6.824219-6.828124 6.824219zm0 0" fill="#fff"/><path d="m42.664062 143.351562c-3.769531 0-6.828124-3.054687-6.828124-6.828124 0-59.261719 31.152343-67.730469 32.476562-68.0625 3.660156-.921876 7.363281 1.308593 8.28125 4.96875.902344 3.621093-1.265625 7.289062-4.855469 8.25-1.144531.339843-22.246093 7.363281-22.246093 54.84375 0 3.773437-3.058594 6.828124-6.828126 6.828124zm0 0" fill="#fff"/></svg>